<svg width="531" height="598" viewBox="0 0 531 598" fill="none" xmlns="http://www.w3.org/2000/svg">
<path d="M73.4119 10.806C37.2203 -30.4958 5.78576 58.6089 -5.40753 108.324V598H530.938C531.715 586.18 525.528 560.975 494.56 554.717C463.591 548.459 463.001 498.57 466.576 474.408C478.236 454.939 494.56 404.32 466.576 357.595C431.597 299.188 403.148 353.423 365.37 321.091C327.593 288.758 395.219 190.719 372.366 139.092C349.513 87.4645 303.807 69.2125 242.71 40.5307C193.833 17.5853 153.941 50.0913 140.105 69.2125C132.954 66.9527 109.604 52.1077 73.4119 10.806Z" fill="black"/>
<path d="M60.8194 10.6178C24.6278 -30.6839 -6.80671 58.4208 -18 108.136V597.812H518.345C519.123 585.992 512.935 560.786 481.967 554.529C450.999 548.271 450.408 498.382 453.984 474.22C465.643 454.751 481.967 404.132 453.984 357.407C419.005 299 390.555 353.235 352.778 320.902C315 288.57 382.627 190.531 359.774 138.904C336.921 87.2764 291.215 69.0244 230.118 40.3426C181.241 17.3972 141.349 49.9032 127.513 69.0244C120.362 66.7646 97.0111 51.9196 60.8194 10.6178Z" fill="url(#paint0_linear_62_7)"/>
<defs>
<linearGradient id="paint0_linear_62_7" x1="305.206" y1="128.286" x2="12.6638" y2="582.339" gradientUnits="userSpaceOnUse">
<stop offset="0.27683" stop-color="white"/>
<stop offset="1"/>
</linearGradient>
</defs>
</svg>
