<svg width="571" height="698" viewBox="0 0 571 698" fill="none" xmlns="http://www.w3.org/2000/svg">
<path d="M80 12.613C41.2 -35.5954 7.5 68.4097 -4.5 126.438V698H570.5C571.333 684.203 564.7 654.783 531.5 647.479C498.3 640.174 497.667 581.943 501.5 553.74C514 531.016 531.5 471.932 501.5 417.393C464 349.22 433.5 412.524 393 374.785C352.5 337.046 425 222.612 400.5 162.351C376 102.091 327 80.7865 261.5 47.3084C209.1 20.526 166.333 58.4678 151.5 80.7865C143.833 78.1488 118.8 60.8214 80 12.613Z" fill="black"/>
<path d="M66.5 12.3934C27.7 -35.815 -6 68.1902 -18 126.219V697.78H557C557.833 683.983 551.2 654.563 518 647.259C484.8 639.955 484.167 581.723 488 553.52C500.5 530.796 518 471.712 488 417.173C450.5 349 420 412.304 379.5 374.565C339 336.826 411.5 222.392 387 162.132C362.5 101.871 313.5 80.5669 248 47.0888C195.6 20.3064 152.833 58.2482 138 80.5669C130.333 77.9292 105.3 60.6018 66.5 12.3934Z" fill="url(#paint0_linear_62_7)"/>
<defs>
<linearGradient id="paint0_linear_62_7" x1="328.5" y1="149.738" x2="-24.0946" y2="652.385" gradientUnits="userSpaceOnUse">
<stop offset="0.27683" stop-color="white"/>
<stop offset="1"/>
</linearGradient>
</defs>
</svg>
